<svg xmlns="http://www.w3.org/2000/svg" width="29.701" height="29.321" viewBox="0 0 29.701 29.320999">
    <path d="M20.326 3.938c0-.715.143-1.396.395-2.022C18.818.99 16.69.458 14.433.458 6.462.458 0 6.918 0 14.89c0 7.968 6.46 14.43 14.432 14.43 7.967 0 14.43-6.462 14.43-14.43 0-2.083-.45-4.058-1.244-5.846-.58.21-1.203.332-1.854.332-3 0-5.438-2.44-5.438-5.438z" fill="#959595"/>
    <path d="M25.763 7.875c2.17 0 3.938-1.767 3.938-3.938C29.7 1.767 27.934 0 25.764 0c-2.172 0-3.938 1.767-3.938 3.938 0 2.17 1.766 3.937 3.938 3.937z" fill="#ed1c24"/>
    <g>
        <path d="M19.884 16.42H13.02v1.715h6.864V16.42zm2.574-6.008H10.445c-.475 0-.857.385-.857.858v9.438c0 .474.383.858.857.858h6.436l3.862 2.574v-2.574h1.717c.474 0 .856-.385.856-.858V11.27c0-.473-.383-.858-.858-.858zm-.857 9.44h-2.573v1.287L16.88 19.85h-5.575V12.13h10.297v7.722zm-1.716-6.007H13.02v1.716h6.864v-1.715z" fill="#fff"/>
        <g fill="#fff">
            <path d="M7.89 15.674V8.74h10.56l.01-1.715H7.89c-.945 0-1.717.77-1.717 1.715v6.96M18.515 8.74H16.21"/>
        </g>
    </g>
</svg>
