<svg xmlns="http://www.w3.org/2000/svg" width="12" height="12" viewBox="0 0 42.5 42.5"><g fill="#007892"><path d="M34.09 11.844H15.976c-2.36 0-4.28 1.92-4.28 4.28v9.057c0 2.362 1.92 4.105 4.28 4.105h3.927v5.13h1.452l.6-.6 4.53-4.53h7.605c2.36 0 4.28-1.743 4.28-4.104v-9.056c0-2.36-1.92-4.28-4.28-4.28zm2.23 13.337c0 1.23-1 2.053-2.23 2.053h-8.456l-3.68 3.68v-3.68h-5.978c-1.23 0-2.228-.823-2.228-2.052v-9.056c0-1.23 1-2.23 2.228-2.23H34.09c1.23 0 2.23 1 2.23 2.23z"/><path d="M6.566 18V8.942c0-1.23 1-2.23 2.23-2.23h18.113c1.227 0 2.227 1 2.227 2.23v.85h2.052v-.85c0-2.36-1.922-4.28-4.282-4.28H8.795c-2.36 0-4.28 1.92-4.28 4.28V18c0 2.36 1.92 4.103 4.28 4.103h.85V20.05h-.85c-1.23 0-2.23-.822-2.23-2.05zM17.85 36.467h6.157v2.052H17.85z"/></g></svg>
