<svg xmlns="http://www.w3.org/2000/svg" width="306.8" height="43.3" viewBox="0 0 287.6 40.6">
    <path d="M61.665 26.568c-1.64 1.82-3.896 2.772-6.28 2.772-4.557 0-8.198-3.513-8.198-8.125 0-4.59 3.64-8.104 8.197-8.104 2.384 0 4.642.954 6.303 2.795l-2.3 2.284c-.895-1.482-2.427-2.264-4.003-2.264-2.83 0-4.79 2.56-4.79 5.29 0 2.728 1.937 5.31 4.79 5.31 1.214 0 2.406-.36 4.024-2.202l2.257 2.244zM75.72 13.28v9.542c0 2.603-1.066 6.517-6.602 6.517-5.514 0-6.62-3.915-6.62-6.518V13.28h3.405v9.542c0 .783.17 3.703 3.215 3.703 3.046 0 3.174-2.92 3.174-3.703V13.28h3.427zM80.893 29.15h-3.407V13.28h3.407v15.87zM89.346 29.15h-6.41V13.28h6.41c4.322.022 7.793 3.576 7.793 7.935 0 4.38-3.472 7.914-7.794 7.934zm4.386-7.935c0-2.56-1.81-5.078-4.407-5.12h-2.98v10.24h2.98c2.62-.02 4.407-2.56 4.407-5.12zM112.087 29.15h-3.662l-1.3-3.048h-5.43l-1.254 3.047h-3.683l6.58-15.87h2.192l6.557 15.87zm-6.026-5.862l-1.64-4.57c-.49 1.312-1.085 3.09-1.638 4.57h3.28zM126.82 29.15h-3.642l-7.068-10.41v10.41h-3.427V13.28h3.62l7.09 10.43V13.28h3.426v15.87zM135.38 29.15h-6.41V13.28h6.41c4.323.022 7.793 3.576 7.793 7.935 0 4.38-3.47 7.914-7.793 7.934zm4.387-7.935c0-2.56-1.81-5.078-4.408-5.12h-2.982v10.24h2.98c2.62-.02 4.41-2.56 4.41-5.12zM160.08 21.215c0 4.612-3.66 8.125-8.198 8.125-4.536 0-8.197-3.513-8.197-8.125 0-4.59 3.66-8.104 8.197-8.104 4.537 0 8.2 3.514 8.2 8.105zm-12.988 0c0 2.687 1.98 5.31 4.79 5.31 2.854 0 4.792-2.58 4.792-5.31 0-2.73-1.938-5.29-4.792-5.29-2.81 0-4.79 2.58-4.79 5.29zM182.385 25.967h-3.958V15.903h3.958c2.696.014 4.878 2.27 4.878 5.032 0 2.777-2.182 5.02-4.878 5.032zm2.357-2.32c.65-.726 1.015-1.68 1.015-2.713 0-1.02-.364-1.985-1.015-2.697-.637-.71-1.492-1.1-2.385-1.1h-2.426v7.597h2.427c.894 0 1.748-.377 2.385-1.088zM198.133 20.935c0 2.926-2.318 5.167-5.164 5.167-2.848 0-5.164-2.24-5.164-5.167 0-2.925 2.316-5.154 5.163-5.154 2.845 0 5.163 2.23 5.163 5.155zm-8.823 0c0 2.053 1.518 3.933 3.66 3.933 2.155 0 3.658-1.88 3.658-3.933 0-2.04-1.52-3.918-3.66-3.918s-3.658 1.88-3.658 3.918zM214.166 15.903v10.065h-1.506v-7.556l-3.915 7.556h-.856l-3.915-7.556v7.556h-1.506V15.903h1.816l4.023 7.784 4.025-7.784h1.831zM222.948 24.734v1.234h-7.02V15.903h6.763v1.235h-5.258v2.98h4.295v1.247h-4.295v3.37h5.516zM232.055 15.903v6.12c0 1.623-.65 4.08-4.066 4.08-3.417 0-4.095-2.457-4.095-4.08v-6.12h1.506v6.12c0 .603.135 2.844 2.59 2.844 2.45 0 2.56-2.24 2.56-2.845v-6.12h1.505zM243.98 22.88c0 1.705-1.354 3.088-3.02 3.088h-4.025V15.903h4.024c1.37 0 2.465 1.154 2.465 2.55 0 .724-.298 1.395-.772 1.866.8.548 1.328 1.488 1.328 2.56zm-5.54-3.086H241c.515-.04.922-.645.922-1.342 0-.712-.435-1.315-.964-1.315h-2.52v2.657zm4.037 3.087c0-.992-.65-1.81-1.45-1.85h-2.59v3.704h2.52c.844 0 1.52-.833 1.52-1.853zM253.66 25.967h-1.628l-1.017-2.63h-3.997l-1.003 2.63h-1.627l4.176-10.065h.92l4.175 10.065zm-3.118-3.864l-1.52-3.973-1.532 3.973h3.052zM255.84 25.967h-1.504V15.903h1.505v10.064zM263.09 22.774l2.183 3.194h-1.67l-1.99-2.925h-2.373v2.925h-1.502V15.902h3.944c1.99.014 3.59 1.544 3.59 3.57 0 1.53-.894 2.764-2.183 3.302zm-3.85-.966h2.428c1.152 0 2.1-.967 2.1-2.336 0-1.355-.948-2.335-2.1-2.335h-2.428v4.67zM271.843 22.774l2.183 3.194h-1.666l-1.992-2.925h-2.373v2.925h-1.503V15.902H270.435c1.993.014 3.59 1.544 3.59 3.57 0 1.53-.892 2.764-2.182 3.302zm-3.848-.966h2.427c1.153 0 2.1-.967 2.1-2.336 0-1.355-.947-2.335-2.1-2.335h-2.427v4.67zM284.896 20.935c0 2.926-2.316 5.167-5.164 5.167-2.845 0-5.16-2.24-5.16-5.167 0-2.925 2.315-5.154 5.16-5.154 2.848 0 5.164 2.23 5.164 5.155zm-8.82 0c0 2.053 1.517 3.933 3.656 3.933 2.157 0 3.662-1.88 3.662-3.933 0-2.04-1.52-3.918-3.662-3.918-2.14 0-3.657 1.88-3.657 3.918zM168.548 9.76h1.41v22.578h-1.41z" fill="#fff"/>
    <path d="M32.75 10.61H14.638c-2.36 0-4.28 1.92-4.28 4.28v9.057c0 2.36 1.92 4.104 4.28 4.104h3.927v5.13h1.45l.602-.6 4.53-4.53h7.605c2.36 0 4.282-1.742 4.282-4.103V14.89c0-2.36-1.92-4.28-4.28-4.28zm2.23 13.337c0 1.23-1 2.052-2.23 2.052h-8.455l-3.68 3.678v-3.68h-5.978c-1.23 0-2.23-.822-2.23-2.05V14.89c0-1.23 1-2.228 2.23-2.228H32.75c1.23 0 2.23 1 2.23 2.23z" fill="#007892"/>
    <path d="M5.226 16.766V7.71c0-1.23 1-2.23 2.23-2.23h18.113c1.228 0 2.228 1 2.228 2.23v.848h2.052v-.85c0-2.36-1.92-4.28-4.28-4.28H7.454c-2.36 0-4.28 1.92-4.28 4.28v9.058c0 2.36 1.92 4.103 4.28 4.103h.85v-2.052h-.85c-1.23 0-2.23-.823-2.23-2.052zM16.512 35.233h6.156v2.052h-6.156z" fill="#007892"/>
</svg>
