<?xml version="1.0" encoding="UTF-8" standalone="no"?>
<!-- Created with Inkscape (http://www.inkscape.org/) -->

<svg
   xmlns:dc="http://purl.org/dc/elements/1.1/"
   xmlns:cc="http://creativecommons.org/ns#"
   xmlns:rdf="http://www.w3.org/1999/02/22-rdf-syntax-ns#"
   xmlns:svg="http://www.w3.org/2000/svg"
   xmlns="http://www.w3.org/2000/svg"
   xmlns:sodipodi="http://sodipodi.sourceforge.net/DTD/sodipodi-0.dtd"
   xmlns:inkscape="http://www.inkscape.org/namespaces/inkscape"
   width="113.04765mm"
   height="22.531948mm"
   viewBox="0 0 400.56255 79.837611"
   id="svg4340"
   version="1.1"
   inkscape:version="0.91 r13725"
   sodipodi:docname="t.svg">
  <defs
     id="defs4342" />
  <sodipodi:namedview
     id="base"
     pagecolor="#ffffff"
     bordercolor="#666666"
     borderopacity="1.0"
     inkscape:pageopacity="0.0"
     inkscape:pageshadow="2"
     inkscape:zoom="2.8"
     inkscape:cx="185.72085"
     inkscape:cy="11.80736"
     inkscape:document-units="px"
     inkscape:current-layer="layer1"
     showgrid="false"
     inkscape:window-width="1920"
     inkscape:window-height="1080"
     inkscape:window-x="0"
     inkscape:window-y="0"
     inkscape:window-maximized="0"
     fit-margin-top="0"
     fit-margin-left="0"
     fit-margin-right="0"
     fit-margin-bottom="0" />
  <metadata
     id="metadata4345">
    <rdf:RDF>
      <cc:Work
         rdf:about="">
        <dc:format>image/svg+xml</dc:format>
        <dc:type
           rdf:resource="http://purl.org/dc/dcmitype/StillImage" />
        <dc:title></dc:title>
      </cc:Work>
    </rdf:RDF>
  </metadata>
  <g
     inkscape:label="Camada 1"
     inkscape:groupmode="layer"
     id="layer1"
     transform="translate(-143.03145,-287.97693)">
    <path
       style="fill:#ffffff"
       inkscape:connector-curvature="0"
       id="path13"
       d="m 248.70623,334.54135 c -2.324,2.578 -5.522,3.928 -8.902,3.928 -6.458,0 -11.617,-4.979 -11.617,-11.515 0,-6.507 5.159,-11.485 11.617,-11.485 3.379,0 6.578,1.35 8.932,3.959 l -3.259,3.238 c -1.268,-2.099 -3.44,-3.208 -5.673,-3.208 -4.013,0 -6.79,3.628 -6.79,7.496 0,3.868 2.746,7.526 6.79,7.526 1.72,0 3.41,-0.51 5.703,-3.119 l 3.199,3.18 z" />
    <path
       style="fill:#ffffff"
       inkscape:connector-curvature="0"
       id="path15"
       d="m 268.62323,315.70935 0,13.523 c 0,3.689 -1.509,9.236 -9.354,9.236 -7.815,0 -9.385,-5.547 -9.385,-9.236 l 0,-13.523 4.828,0 0,13.523 c 0,1.11 0.241,5.248 4.557,5.248 4.316,0 4.497,-4.138 4.497,-5.248 l 0,-13.523 4.857,0 z" />
    <path
       style="fill:#ffffff"
       inkscape:connector-curvature="0"
       id="path17"
       d="m 275.95723,338.19935 -4.829,0 0,-22.49 4.829,0 0,22.49 z" />
    <path
       style="fill:#ffffff"
       inkscape:connector-curvature="0"
       id="path19"
       d="m 287.93723,338.19935 -9.084,0 0,-22.49 9.084,0 c 6.125,0.03 11.045,5.068 11.045,11.245 0,6.207 -4.92,11.216 -11.045,11.245 z m 6.216,-11.245 c 0,-3.628 -2.564,-7.196 -6.246,-7.257 l -4.225,0 0,14.514 4.225,0 c 3.711,-0.03 6.246,-3.629 6.246,-7.257 z" />
    <path
       style="fill:#ffffff"
       inkscape:connector-curvature="0"
       id="path21"
       d="m 320.16623,338.19935 -5.19,0 -1.841,-4.318 -7.695,0 -1.779,4.318 -5.221,0 9.324,-22.49 3.108,0 9.294,22.49 z m -8.54,-8.306 -2.324,-6.478 c -0.694,1.86 -1.539,4.379 -2.323,6.478 l 4.647,0 z" />
    <path
       style="fill:#ffffff"
       inkscape:connector-curvature="0"
       id="path23"
       d="m 341.04623,338.19935 -5.16,0 -10.018,-14.754 0,14.754 -4.857,0 0,-22.49 5.13,0 10.048,14.783 0,-14.783 4.857,0 0,22.49 z" />
    <path
       style="fill:#ffffff"
       inkscape:connector-curvature="0"
       id="path25"
       d="m 353.17923,338.19935 -9.083,0 0,-22.49 9.083,0 c 6.126,0.03 11.045,5.068 11.045,11.245 0,6.207 -4.919,11.216 -11.045,11.245 z m 6.217,-11.245 c 0,-3.628 -2.565,-7.196 -6.247,-7.257 l -4.225,0 0,14.514 4.225,0 c 3.712,-0.03 6.247,-3.629 6.247,-7.257 z" />
    <path
       style="fill:#ffffff"
       inkscape:connector-curvature="0"
       id="path27"
       d="m 388.18723,326.95435 c 0,6.536 -5.19,11.515 -11.62,11.515 -6.429,0 -11.618,-4.979 -11.618,-11.515 0,-6.507 5.189,-11.485 11.618,-11.485 6.43,0 11.62,4.979 11.62,11.485 z m -18.41,0 c 0,3.809 2.806,7.526 6.79,7.526 4.044,0 6.791,-3.658 6.791,-7.526 0,-3.868 -2.747,-7.496 -6.791,-7.496 -3.984,0 -6.79,3.657 -6.79,7.496 z" />
    <path
       style="fill:#ffffff"
       inkscape:connector-curvature="0"
       id="path31"
       d="m 418.64823,332.57435 -4.461,0 0,-11.343 4.461,0 c 3.039,0.016 5.498,2.557 5.498,5.672 0,3.13 -2.459,5.656 -5.498,5.671 z m 2.657,-2.616 c 0.733,-0.817 1.144,-1.891 1.144,-3.056 0,-1.149 -0.41,-2.238 -1.144,-3.04 -0.718,-0.802 -1.682,-1.24 -2.688,-1.24 l -2.735,0 0,8.562 2.735,0 c 1.007,0 1.97,-0.424 2.688,-1.226 z" />
    <path
       style="fill:#ffffff"
       inkscape:connector-curvature="0"
       id="path33"
       d="m 436.39823,326.90335 c 0,3.297 -2.613,5.823 -5.82,5.823 -3.209,0 -5.82,-2.526 -5.82,-5.823 0,-3.297 2.611,-5.809 5.82,-5.809 3.207,0 5.82,2.512 5.82,5.809 z m -9.944,0 c 0,2.314 1.71,4.432 4.124,4.432 2.43,0 4.123,-2.117 4.123,-4.432 0,-2.299 -1.711,-4.416 -4.123,-4.416 -2.414,0 -4.124,2.117 -4.124,4.416 z" />
    <path
       style="fill:#ffffff"
       inkscape:connector-curvature="0"
       id="path35"
       d="m 454.46823,321.23135 0,11.344 -1.697,0 0,-8.516 -4.413,8.516 -0.964,0 -4.412,-8.516 0,8.516 -1.697,0 0,-11.344 0.229,0 1.819,0 4.534,8.773 4.538,-8.773 1.818,0 0.245,0 z" />
    <path
       style="fill:#ffffff"
       inkscape:connector-curvature="0"
       id="path37"
       d="m 464.36623,331.18435 0,1.391 -7.911,0 0,-11.344 7.622,0 0,1.392 -5.928,0 0,3.358 4.841,0 0,1.406 -4.841,0 0,3.797 6.217,0 z" />
    <path
       style="fill:#ffffff"
       inkscape:connector-curvature="0"
       id="path39"
       d="m 474.63123,321.23135 0,6.897 c 0,1.83 -0.733,4.598 -4.583,4.598 -3.85,0 -4.614,-2.768 -4.614,-4.598 l 0,-6.897 1.697,0 0,6.897 c 0,0.681 0.151,3.206 2.917,3.206 2.764,0 2.886,-2.525 2.886,-3.206 l 0,-6.897 1.697,0 z" />
    <path
       style="fill:#ffffff"
       inkscape:connector-curvature="0"
       id="path41"
       d="m 488.07223,329.09635 c 0,1.921 -1.527,3.479 -3.406,3.479 l -4.535,0 0,-11.344 4.535,0 c 1.545,0 2.78,1.301 2.78,2.874 0,0.816 -0.336,1.573 -0.87,2.103 0.9,0.619 1.496,1.678 1.496,2.888 z m -6.246,-3.479 2.84,0 c 0.018,0 0.033,0 0.048,0 0.579,-0.046 1.038,-0.727 1.038,-1.513 0,-0.802 -0.49,-1.482 -1.086,-1.482 l -2.84,0 0,2.995 z m 4.551,3.479 c 0,-1.119 -0.732,-2.042 -1.634,-2.087 -0.016,0 -0.045,0 -0.078,0 l -2.84,0 0,4.175 2.84,0 c 0.95,0 1.712,-0.939 1.712,-2.088 z" />
    <path
       style="fill:#ffffff"
       inkscape:connector-curvature="0"
       id="path43"
       d="m 498.98023,332.57435 -1.833,0 -1.146,-2.965 -4.506,0 -1.13,2.965 -1.834,0 4.707,-11.344 1.036,0 4.706,11.344 z m -3.513,-4.355 -1.712,-4.478 -1.727,4.478 3.439,0 z" />
    <path
       style="fill:#ffffff"
       inkscape:connector-curvature="0"
       id="path45"
       d="m 501.44023,332.57435 -1.696,0 0,-11.343 1.696,0 0,11.343 z" />
    <path
       style="fill:#ffffff"
       inkscape:connector-curvature="0"
       id="path47"
       d="m 509.60923,328.97535 2.461,3.6 -1.88,0 -2.245,-3.297 -2.674,0 0,3.297 -1.693,0 0,-3.297 0,-1.392 0,-5.264 0,-1.392 1.693,0 2.752,0 c 2.244,0.016 4.047,1.74 4.047,4.023 0,1.726 -1.008,3.116 -2.461,3.722 z m -4.338,-1.089 2.736,0 c 1.299,0 2.366,-1.089 2.366,-2.632 0,-1.527 -1.067,-2.632 -2.366,-2.632 l -2.736,0 0,5.264 z" />
    <path
       style="fill:#ffffff"
       inkscape:connector-curvature="0"
       id="path49"
       d="m 519.47623,328.97535 2.46,3.6 -1.878,0 -2.245,-3.297 -2.674,0 0,3.297 -1.694,0 0,-3.297 0,-1.392 0,-5.264 0,-1.392 1.694,0 2.751,0 c 2.245,0.016 4.046,1.74 4.046,4.023 0,1.726 -1.007,3.116 -2.46,3.722 z m -4.337,-1.089 2.735,0 c 1.299,0 2.367,-1.089 2.367,-2.632 0,-1.527 -1.068,-2.632 -2.367,-2.632 l -2.735,0 0,5.264 z" />
    <path
       style="fill:#ffffff"
       inkscape:connector-curvature="0"
       id="path51"
       d="m 534.18723,326.90335 c 0,3.297 -2.61,5.823 -5.82,5.823 -3.206,0 -5.817,-2.526 -5.817,-5.823 0,-3.297 2.611,-5.809 5.817,-5.809 3.21,0 5.82,2.512 5.82,5.809 z m -9.942,0 c 0,2.314 1.711,4.432 4.122,4.432 2.431,0 4.127,-2.117 4.127,-4.432 0,-2.299 -1.711,-4.416 -4.127,-4.416 -2.411,0 -4.122,2.117 -4.122,4.416 z" />
    <rect
       x="400.18723"
       y="310.71936"
       width="2"
       height="32"
       id="rect53"
       style="fill:#ffffff" />
    <path
       style="fill:#007892"
       inkscape:connector-curvature="0"
       id="path57"
       d="m 207.84223,308.71935 -35.31,0 c -4.601,0 -8.345,3.744 -8.345,8.345 0,5.885 0,11.77 0,17.655 0,4.602 3.744,8 8.345,8 l 7.655,0 0,9.99999 2.829,0 1.171,-1.171 8.829,-8.82899 14.826,0 c 4.601,0 8.345,-3.398 8.345,-8 l 0,-17.655 c 0,-4.601 -3.744,-8.345 -8.345,-8.345 z m 4.345,26 c 0,2.396 -1.949,4 -4.345,4 l -16.484,0 -7.171,7.171 0,-7.171 -11.655,0 c -2.396,0 -4.345,-1.604 -4.345,-4 0,-5.885 0,-11.77 0,-17.655 0,-2.396 1.949,-4.345 4.345,-4.345 l 35.31,0 c 2.396,0 4.345,1.949 4.345,4.345 z"
       sodipodi:nodetypes="ccccccccsccsscscccccccccss" />
    <path
       style="fill:#007892"
       inkscape:connector-curvature="0"
       id="path59"
       d="m 154.18723,320.71935 0,-17.655 c 0,-2.396 1.949,-4.345 4.345,-4.345 l 35.311,0 c 2.395,0 4.344,1.949 4.344,4.345 l 0,1.655 4,0 0,-1.655 c 0,-4.601 -3.744,-8.345 -8.345,-8.345 l -35.31,0 c -4.601,0 -8.345,3.744 -8.345,8.345 l 0,17.655 c 0,4.602 3.744,8 8.345,8 l 1.655,0 0,-4 -1.655,0 c -2.396,0 -4.345,-1.604 -4.345,-4 z" />
    <rect
       style="fill:#007892"
       id="rect61"
       height="4"
       width="12"
       y="356.71933"
       x="176.18723" />
  </g>
</svg>
