<?xml version="1.0" encoding="UTF-8" standalone="no"?>
<!-- Created with Inkscape (http://www.inkscape.org/) -->

<svg
   xmlns:dc="http://purl.org/dc/elements/1.1/"
   xmlns:cc="http://creativecommons.org/ns#"
   xmlns:rdf="http://www.w3.org/1999/02/22-rdf-syntax-ns#"
   xmlns:svg="http://www.w3.org/2000/svg"
   xmlns="http://www.w3.org/2000/svg"
   xmlns:sodipodi="http://sodipodi.sourceforge.net/DTD/sodipodi-0.dtd"
   xmlns:inkscape="http://www.inkscape.org/namespaces/inkscape"
   width="81.183052mm"
   height="11.475403mm"
   viewBox="0 0 287.65648 40.660876"
   id="svg4340"
   version="1.1"
   inkscape:version="0.91 r13725"
   sodipodi:docname="logo.svg">
  <defs
     id="defs4342" />
  <sodipodi:namedview
     id="base"
     pagecolor="#ffffff"
     bordercolor="#666666"
     borderopacity="1.0"
     inkscape:pageopacity="0.0"
     inkscape:pageshadow="2"
     inkscape:zoom="2.8"
     inkscape:cx="195.75619"
     inkscape:cy="22.200581"
     inkscape:document-units="px"
     inkscape:current-layer="layer1"
     showgrid="false"
     inkscape:window-width="1920"
     inkscape:window-height="1080"
     inkscape:window-x="0"
     inkscape:window-y="0"
     inkscape:window-maximized="0"
     fit-margin-top="0"
     fit-margin-left="0"
     fit-margin-right="0"
     fit-margin-bottom="0" />
  <metadata
     id="metadata4345">
    <rdf:RDF>
      <cc:Work
         rdf:about="">
        <dc:format>image/svg+xml</dc:format>
        <dc:type
           rdf:resource="http://purl.org/dc/dcmitype/StillImage" />
        <dc:title></dc:title>
      </cc:Work>
    </rdf:RDF>
  </metadata>
  <g
     inkscape:label="Camada 1"
     inkscape:groupmode="layer"
     id="layer1"
     transform="translate(-441.29852,-312.00574)">
    <path
       style="fill:#ffffff"
       inkscape:connector-curvature="0"
       id="path13"
       d="m 502.96387,338.57382 c -1.63978,1.81901 -3.89626,2.77155 -6.28115,2.77155 -4.55667,0 -8.1968,-3.51312 -8.1968,-8.12484 0,-4.59127 3.64013,-8.10368 8.1968,-8.10368 2.3842,0 4.64137,0.95254 6.30231,2.79343 l -2.2995,2.28469 c -0.89469,-1.48102 -2.42722,-2.26352 -4.00281,-2.26352 -2.83151,0 -4.79093,2.55987 -4.79093,5.28908 0,2.72921 1.93755,5.31024 4.79093,5.31024 1.21362,0 2.40606,-0.35983 4.02398,-2.20072 l 2.25717,2.24377 z" />
    <path
       style="fill:#ffffff"
       inkscape:connector-curvature="0"
       id="path15"
       d="m 517.01705,325.2862 0,9.54165 c 0,2.60291 -1.06472,6.51681 -6.60005,6.51681 -5.51417,0 -6.62195,-3.9139 -6.62195,-6.51681 l 0,-9.54165 3.40657,0 0,9.54165 c 0,0.7832 0.17006,3.70292 3.21538,3.70292 3.04532,0 3.17302,-2.91972 3.17302,-3.70292 l 0,-9.54165 3.42703,0 z" />
    <path
       style="fill:#ffffff"
       inkscape:connector-curvature="0"
       id="path17"
       d="m 522.19183,341.15486 -3.40727,0 0,-15.86866 3.40727,0 0,15.86866 z" />
    <path
       style="fill:#ffffff"
       inkscape:connector-curvature="0"
       id="path19"
       d="m 530.64477,341.15486 -6.40955,0 0,-15.86866 6.40955,0 c 4.32173,0.0212 7.79322,3.57592 7.79322,7.93433 0,4.37958 -3.47149,7.91387 -7.79322,7.93433 z m 4.38594,-7.93433 c 0,-2.55987 -1.80913,-5.07741 -4.4071,-5.12044 l -2.9811,0 0,10.24089 2.9811,0 c 2.61843,-0.0212 4.4071,-2.56058 4.4071,-5.12045 z" />
    <path
       style="fill:#ffffff"
       inkscape:connector-curvature="0"
       id="path21"
       d="m 553.38517,341.15486 -3.66201,0 -1.29898,-3.04673 -5.4295,0 -1.25524,3.04673 -3.68388,0 6.5789,-15.86866 2.19297,0 6.55774,15.86866 z m -6.02573,-5.86062 -1.63979,-4.57079 c -0.48968,1.31239 -1.08589,3.08977 -1.63907,4.57079 l 3.27886,0 z" />
    <path
       style="fill:#ffffff"
       inkscape:connector-curvature="0"
       id="path23"
       d="m 568.11783,341.15486 -3.64083,0 -7.06859,-10.41024 0,10.41024 -3.42703,0 0,-15.86866 3.61967,0 7.08974,10.4307 0,-10.4307 3.42704,0 0,15.86866 z" />
    <path
       style="fill:#ffffff"
       inkscape:connector-curvature="0"
       id="path25"
       d="m 576.67872,341.15486 -6.40885,0 0,-15.86866 6.40885,0 c 4.32243,0.0212 7.79322,3.57592 7.79322,7.93433 0,4.37958 -3.47079,7.91387 -7.79322,7.93433 z m 4.38664,-7.93433 c 0,-2.55987 -1.80984,-5.07741 -4.4078,-5.12044 l -2.98111,0 0,10.24089 2.98111,0 c 2.61915,-0.0212 4.4078,-2.56058 4.4078,-5.12045 z" />
    <path
       style="fill:#ffffff"
       inkscape:connector-curvature="0"
       id="path27"
       d="m 601.37994,333.22053 c 0,4.61172 -3.662,8.12484 -8.19893,8.12484 -4.53623,0 -8.19752,-3.51312 -8.19752,-8.12484 0,-4.59127 3.66129,-8.10368 8.19752,-8.10368 4.53693,0 8.19893,3.51312 8.19893,8.10368 z m -12.98987,0 c 0,2.68759 1.97988,5.31024 4.79094,5.31024 2.85339,0 4.79164,-2.58103 4.79164,-5.31024 0,-2.72921 -1.93825,-5.28908 -4.79164,-5.28908 -2.81106,0 -4.79094,2.58033 -4.79094,5.28908 z" />
    <path
       style="fill:#ffffff"
       inkscape:connector-curvature="0"
       id="path31"
       d="m 623.68319,337.97264 -3.95798,0 0,-10.06398 3.95798,0 c 2.69633,0.0143 4.87806,2.26868 4.87806,5.03242 0,2.77708 -2.18173,5.01824 -4.87806,5.03156 z m 2.35741,-2.32103 c 0.65035,-0.72488 1.015,-1.67778 1.015,-2.71141 0,-1.01944 -0.36377,-1.98565 -1.015,-2.69722 -0.63703,-0.71157 -1.49234,-1.10017 -2.3849,-1.10017 l -2.42662,0 0,7.59655 2.42662,0 c 0.89344,0 1.74787,-0.37618 2.3849,-1.08775 z" />
    <path
       style="fill:#ffffff"
       inkscape:connector-curvature="0"
       id="path33"
       d="m 639.43173,332.94108 c 0,2.92524 -2.31837,5.16641 -5.16375,5.16641 -2.84715,0 -5.16374,-2.24117 -5.16374,-5.16641 0,-2.92522 2.31659,-5.15398 5.16374,-5.15398 2.84538,0 5.16375,2.22876 5.16375,5.15398 z m -8.82273,0 c 0,2.05309 1.51718,3.93225 3.65898,3.93225 2.156,0 3.6581,-1.87828 3.6581,-3.93225 0,-2.03976 -1.51807,-3.91805 -3.6581,-3.91805 -2.1418,0 -3.65898,1.87829 -3.65898,3.91805 z" />
    <path
       style="fill:#ffffff"
       inkscape:connector-curvature="0"
       id="path35"
       d="m 655.46417,327.90866 0,10.06486 -1.50564,0 0,-7.55575 -3.9154,7.55575 -0.85529,0 -3.91451,-7.55575 0,7.55575 -1.50566,0 0,-10.06486 0.20318,0 1.6139,0 4.02274,7.78376 4.02631,-7.78376 1.613,0 0.21737,0 z" />
    <path
       style="fill:#ffffff"
       inkscape:connector-curvature="0"
       id="path37"
       d="m 664.24609,336.73936 0,1.23416 -7.01896,0 0,-10.06486 6.76255,0 0,1.23504 -5.25957,0 0,2.97935 4.29513,0 0,1.24746 -4.29513,0 0,3.36885 5.51598,0 z" />
    <path
       style="fill:#ffffff"
       inkscape:connector-curvature="0"
       id="path39"
       d="m 673.35362,327.90866 0,6.1193 c 0,1.62365 -0.65034,4.07953 -4.06623,4.07953 -3.41587,0 -4.09373,-2.45588 -4.09373,-4.07953 l 0,-6.1193 1.50566,0 0,6.1193 c 0,0.60422 0.13397,2.8445 2.58807,2.8445 2.45234,0 2.56058,-2.24028 2.56058,-2.8445 l 0,-6.1193 1.50565,0 z" />
    <path
       style="fill:#ffffff"
       inkscape:connector-curvature="0"
       id="path41"
       d="m 685.27905,334.8868 c 0,1.7044 -1.35481,3.08672 -3.02196,3.08672 l -4.02364,0 0,-10.06486 4.02364,0 c 1.37077,0 2.46651,1.1543 2.46651,2.54993 0,0.72398 -0.29808,1.39563 -0.77189,1.86587 0.79852,0.5492 1.32734,1.4888 1.32734,2.56234 z m -5.54173,-3.08672 2.51977,0 c 0.0159,0 0.0292,0 0.0425,0 0.51371,-0.0408 0.92094,-0.64502 0.92094,-1.34238 0,-0.71158 -0.43474,-1.31489 -0.96352,-1.31489 l -2.51977,0 0,2.65727 z m 4.03785,3.08672 c 0,-0.99282 -0.64945,-1.81173 -1.44976,-1.85166 -0.0143,0 -0.0399,0 -0.0692,0 l -2.51976,0 0,3.70422 2.51976,0 c 0.84288,0 1.51898,-0.83311 1.51898,-1.85256 z" />
    <path
       style="fill:#ffffff"
       inkscape:connector-curvature="0"
       id="path43"
       d="m 694.95705,337.97264 -1.6263,0 -1.0168,-2.63068 -3.99788,0 -1.00258,2.63068 -1.62721,0 4.17622,-10.06487 0.9192,0 4.17535,10.06487 z m -3.11686,-3.86395 -1.51894,-3.97306 -1.5323,3.97306 3.05124,0 z" />
    <path
       style="fill:#ffffff"
       inkscape:connector-curvature="0"
       id="path45"
       d="m 697.13967,337.97264 -1.50477,0 0,-10.06398 1.50477,0 0,10.06398 z" />
    <path
       style="fill:#ffffff"
       inkscape:connector-curvature="0"
       id="path47"
       d="m 704.38756,334.77945 2.1835,3.19407 -1.66804,0 -1.99186,-2.92524 -2.37245,0 0,2.92524 -1.50209,0 0,-2.92524 0,-1.23502 0,-4.67045 0,-1.23504 1.50209,0 2.44167,0 c 1.99096,0.0142 3.59068,1.54379 3.59068,3.56937 0,1.53137 -0.89436,2.76464 -2.1835,3.30231 z m -3.84885,-0.96619 2.42747,0 c 1.15253,0 2.09921,-0.96622 2.09921,-2.33523 0,-1.35483 -0.94668,-2.33522 -2.09921,-2.33522 l -2.42747,0 0,4.67045 z" />
    <path
       style="fill:#ffffff"
       inkscape:connector-curvature="0"
       id="path49"
       d="m 713.14193,334.77945 2.18266,3.19407 -1.66625,0 -1.99185,-2.92524 -2.37252,0 0,2.92524 -1.50298,0 0,-2.92524 0,-1.23502 0,-4.67045 0,-1.23504 1.50298,0 2.44083,0 c 1.99186,0.0142 3.58979,1.54379 3.58979,3.56937 0,1.53137 -0.89347,2.76464 -2.18266,3.30231 z m -3.84796,-0.96619 2.42662,0 c 1.15254,0 2.10012,-0.96622 2.10012,-2.33523 0,-1.35483 -0.94758,-2.33522 -2.10012,-2.33522 l -2.42662,0 0,4.67045 z" />
    <path
       style="fill:#ffffff"
       inkscape:connector-curvature="0"
       id="path51"
       d="m 726.19415,332.94108 c 0,2.92524 -2.31567,5.16641 -5.16374,5.16641 -2.84449,0 -5.16109,-2.24117 -5.16109,-5.16641 0,-2.92522 2.3166,-5.15398 5.16109,-5.15398 2.84807,0 5.16374,2.22876 5.16374,5.15398 z m -8.82095,0 c 0,2.05309 1.51809,3.93225 3.65721,3.93225 2.15687,0 3.66165,-1.87828 3.66165,-3.93225 0,-2.03976 -1.51809,-3.91805 -3.66165,-3.91805 -2.13912,0 -3.65721,1.87829 -3.65721,3.91805 z" />
    <rect
       x="609.84698"
       y="321.76532"
       width="1.4111753"
       height="22.578804"
       id="rect53"
       style="fill:#ffffff" />
    <path
       style="fill:#007892"
       inkscape:connector-curvature="0"
       id="path57"
       d="m 474.0492,322.61546 -18.11357,0 c -2.36025,0 -4.28087,1.92062 -4.28087,4.28087 0,3.01893 0,6.03786 0,9.05679 0,2.36076 1.92062,4.10389 4.28087,4.10389 l 3.92692,0 0,5.12986 1.45124,0 0.6007,-0.6007 4.52917,-4.52916 7.60554,0 c 2.36025,0 4.28088,-1.74313 4.28088,-4.10389 l 0,-9.05679 c 0,-2.36025 -1.92063,-4.28087 -4.28088,-4.28087 z m 2.22893,13.33766 c 0,1.22911 -0.99981,2.05194 -2.22893,2.05194 l -8.45608,0 -3.67863,3.67863 0,-3.67863 -5.97886,0 c -1.22911,0 -2.22893,-0.82283 -2.22893,-2.05194 0,-3.01893 0,-6.03786 0,-9.05679 0,-1.22911 0.99982,-2.22893 2.22893,-2.22893 l 18.11357,0 c 1.22912,0 2.22893,0.99982 2.22893,2.22893 z"
       sodipodi:nodetypes="ccccccccsccsscscccccccccss" />
    <path
       style="fill:#007892"
       inkscape:connector-curvature="0"
       id="path59"
       d="m 446.52489,328.7713 0,-9.05678 c 0,-1.22912 0.99981,-2.22893 2.22893,-2.22893 l 18.11408,0 c 1.2286,0 2.22841,0.99981 2.22841,2.22893 l 0,0.84899 2.05195,0 0,-0.84899 c 0,-2.36026 -1.92062,-4.28088 -4.28088,-4.28088 l -18.11356,0 c -2.36026,0 -4.28088,1.92062 -4.28088,4.28088 l 0,9.05678 c 0,2.36077 1.92062,4.10389 4.28088,4.10389 l 0.84899,0 0,-2.05194 -0.84899,0 c -1.22912,0 -2.22893,-0.82283 -2.22893,-2.05195 z" />
    <rect
       style="fill:#007892"
       id="rect61"
       height="2.0519476"
       width="6.1558428"
       y="347.23883"
       x="457.81061" />
  </g>
</svg>
