<svg xmlns:ns="&amp;#38;ns_ai;" xmlns="http://www.w3.org/2000/svg" xmlns:xlink="http://www.w3.org/1999/xlink" width="224.8" height="224.8" viewBox="0 0 211 211">
    <switch transform="translate(-374.632 -374.63)">
        <g ns:extraneous="self">
            <path d="M378.143 581.857c4.684 4.683 12.293 4.683 16.977 0l54.734-54.734c.29-.293.877-.878 1.17-1.463 32.78 24.88 79.904 22.244 109.76-7.61 32.78-32.78 32.78-86.05 0-118.833-32.78-32.78-86.053-32.78-118.832 0-29.855 29.854-32.49 76.978-7.61 109.76-.587.293-.88.586-1.466 1.17l-54.732 54.735c-4.683 4.68-4.683 12.292 0 16.975zm79.61-79.613c-24-24-24-63.22 0-87.222 24.003-24 63.224-24 87.224 0 24.002 24 24.002 63.222 0 87.222-24 24.294-63.22 24-87.223 0z" fill="#FFFFFF"/>
        </g>
    </switch>
</svg>
