<svg xmlns:ns="&amp;#38;#38;ns_ai;" xmlns="http://www.w3.org/2000/svg" xmlns:xlink="http://www.w3.org/1999/xlink" width="503" height="407" viewBox="0 0 471 382">
    <switch transform="translate(-244.21 -288.95)">
        <g ns:extraneous="self">
            <path d="M682.864 465.828c-17.836-6.64-41.322-10.294-66.134-10.294-24.812 0-48.3 3.658-66.134 10.294-27.216 10.13-32.926 23.775-32.926 33.438.007 44.645 0 89.796 0 128.043 0 9.66 5.71 23.306 32.926 33.436 17.834 6.642 41.322 10.295 66.134 10.295 24.812 0 48.298-3.658 66.134-10.294 27.215-10.13 32.926-23.774 32.926-33.44-.017-43.752-.005-88.66 0-128.054 0-9.648-5.71-23.293-32.926-33.424zM558.216 486.3c15.458-5.752 36.24-8.92 58.515-8.92s43.057 3.168 58.514 8.92c14.746 5.49 18.458 11.02 18.69 12.79v.346c-.232 1.77-3.94 7.3-18.69 12.79-15.457 5.752-36.238 8.92-58.513 8.92-22.274 0-43.056-3.168-58.514-8.92-15.266-5.686-18.7-11.408-18.7-12.966 0-1.558 3.434-7.274 18.7-12.96zM675.238 639.75c-15.458 5.754-36.24 8.923-58.514 8.923-22.275 0-43.056-3.168-58.514-8.922-15.267-5.685-18.702-11.405-18.702-12.963V613.17c3.228 1.698 6.896 3.34 11.082 4.898 17.835 6.643 41.322 10.295 66.134 10.295 24.812 0 48.3-3.658 66.134-10.295 4.185-1.558 7.854-3.195 11.076-4.892l.006 13.613c0 1.558-3.44 7.28-18.702 12.958zm18.702-55.643h-.01v.17c-.234 1.772-3.94 7.302-18.692 12.79-15.458 5.753-36.24 8.922-58.514 8.922-22.275 0-43.056-3.17-58.514-8.922-15.267-5.685-18.702-11.406-18.702-12.965v-13.612c3.228 1.695 6.896 3.34 11.082 4.896 17.835 6.643 41.322 10.295 66.134 10.295 24.812 0 48.3-3.66 66.134-10.296 4.185-1.558 7.854-3.195 11.076-4.892zm0-42.682h-.01v.17c-.234 1.77-3.94 7.3-18.692 12.79-15.458 5.752-36.24 8.922-58.514 8.922-22.275 0-43.056-3.17-58.514-8.923-15.267-5.685-18.702-11.407-18.702-12.965v-13.612c3.228 1.695 6.896 3.34 11.082 4.897 17.835 6.64 41.322 10.294 66.134 10.294 24.812 0 48.3-3.658 66.134-10.294 4.185-1.558 7.854-3.196 11.076-4.893zm-284.53-32.91c-17.834-6.642-41.32-10.295-66.133-10.295-24.812 0-48.3 3.66-66.135 10.294-27.214 10.13-32.925 23.775-32.925 33.437.014 29.16-.003 59.186-.006 85.366 0 9.662 5.712 23.306 32.927 33.437 17.835 6.64 41.322 10.295 66.134 10.295 24.813 0 48.3-3.66 66.135-10.295 27.216-10.13 32.926-23.774 32.926-33.437 0 0 .173-58.767 0-85.37.007-9.66-5.704-23.303-32.92-33.434zm-124.646 20.472c15.457-5.754 36.238-8.923 58.514-8.923 22.276 0 43.056 3.17 58.514 8.923 14.735 5.487 18.446 11.007 18.69 12.783v.356c-.238 1.775-3.95 7.3-18.69 12.783-15.458 5.754-36.238 8.923-58.514 8.923-22.276 0-43.057-3.17-58.514-8.923-15.268-5.685-18.702-11.406-18.702-12.965 0-1.556 3.434-7.272 18.702-12.957zm117.022 110.763c-15.458 5.754-36.24 8.923-58.515 8.923-22.273 0-43.055-3.168-58.512-8.922-15.268-5.685-18.703-11.405-18.703-12.963V613.17c3.23 1.698 6.897 3.34 11.082 4.898 17.835 6.643 41.322 10.295 66.134 10.295 24.813 0 48.3-3.658 66.135-10.295 4.186-1.558 7.854-3.195 11.077-4.892l.005 13.608c0 1.56-3.435 7.28-18.7 12.964zm18.684-55.466c-.238 1.775-3.95 7.3-18.69 12.783-15.458 5.753-36.238 8.922-58.514 8.922-22.274 0-43.056-3.17-58.514-8.922-15.267-5.685-18.702-11.406-18.702-12.965v-13.612c3.228 1.695 6.897 3.34 11.082 4.896 17.835 6.643 41.322 10.295 66.134 10.295 24.812 0 48.3-3.66 66.134-10.296 4.186-1.558 7.854-3.195 11.076-4.892-.013 4.583.04 9.24-.006 13.79zm75.35-37.122c-10.868.687-21.505.647-31.65.006.245-7.99-1.002-16.59-3.428-22.68 12.177.976 23.697 1.05 35.085.276.003 7.475-.007 14.928-.007 22.398zm0 42.15c-10.868.688-21.505.65-31.65.006.03-7.257.014-14.562.012-21.882 10.87.724 21.482.696 31.644.005.003 7.298-.006 14.577-.006 21.87zm83.247-256.627c0-9.662-5.71-23.307-32.926-33.437-17.84-6.636-41.327-10.295-66.14-10.295-24.81 0-48.298 3.66-66.133 10.296-27.215 10.13-32.926 23.774-32.926 33.437.01 48.825 0 97.617 0 146.415 22.493 3.938 44.782 9.527 62.284 23.052 18.83 2.61 35.19 3.428 52.6 2.324-.194-8.22 1.124-17.052 3.675-23.233-6.297.554-12.826.84-19.494.84-22.275 0-43.057-3.168-58.515-8.92-15.266-5.687-18.7-11.408-18.7-12.966v-13.612c3.228 1.696 6.896 3.34 11.08 4.897 17.836 6.64 41.324 10.294 66.136 10.294 13.14 0 25.9-1.037 37.658-2.988 18.552-13.195 40.78-19.218 61.4-22.377.057-35.104-.093-72.125.003-103.727zm-157.58-12.962c15.458-5.754 36.238-8.923 58.514-8.923 22.277 0 43.057 3.17 58.515 8.924 14.735 5.487 18.446 11.008 18.69 12.783v.356c-.238 1.774-3.95 7.3-18.69 12.782-15.458 5.754-36.238 8.923-58.514 8.923-22.275 0-43.055-3.17-58.513-8.923-15.267-5.685-18.702-11.406-18.702-12.965 0-1.557 3.436-7.273 18.702-12.956zM557.2 417.7c-.24 1.776-3.95 7.3-18.69 12.783-15.453 5.754-36.233 8.923-58.51 8.923-22.275 0-43.055-3.17-58.513-8.923-15.267-5.685-18.702-11.405-18.702-12.964v-13.614c3.228 1.696 6.896 3.34 11.082 4.897 17.835 6.643 41.322 10.295 66.134 10.295 24.813 0 48.3-3.658 66.135-10.295 4.185-1.558 7.854-3.196 11.076-4.893-.014 4.583.037 9.24-.01 13.79zm.017-42.86h-.017v.177c-.24 1.775-3.95 7.3-18.69 12.783-15.458 5.753-36.24 8.923-58.514 8.923-22.276 0-43.057-3.17-58.514-8.923-15.268-5.684-18.702-11.406-18.702-12.964v-13.613c3.228 1.696 6.896 3.34 11.08 4.897 17.842 6.642 41.33 10.295 66.14 10.295 24.813 0 48.3-3.658 66.135-10.295 4.185-1.558 7.854-3.195 11.076-4.892z"/>
        </g>
    </switch>
</svg>
